<svg xmlns="http://www.w3.org/2000/svg" width="128" height="80" viewBox="0 0 128 80" role="img" aria-labelledby="title">
  <title id="title">Apple Pay</title>
  <rect width="128" height="80" rx="10" fill="#fff"/>
  <path fill="#000" d="M37.4 34.5c2-2.4 3.4-5.7 3-9-2.9.1-6.4 1.9-8.5 4.3-1.9 2.1-3.5 5.5-3.1 8.7 3.2.3 6.5-1.6 8.6-4Zm2.9 5c-4.6-.3-8.5 2.6-10.7 2.6-2.2 0-5.5-2.5-9.1-2.4-4.7.1-9.1 2.8-11.5 7.1-4.9 8.5-1.3 21 3.5 27.9 2.3 3.4 5.1 7.2 8.7 7 3.5-.1 4.8-2.3 9-2.3 4.2 0 5.4 2.3 9.1 2.2 3.8-.1 6.2-3.4 8.5-6.8 2.7-3.9 3.8-7.7 3.9-7.9-.1 0-7.4-2.8-7.5-11.3-.1-7.1 5.8-10.5 6.1-10.7-3.3-4.8-8.4-5.3-10-5.4Z" transform="scale(.45) translate(38 54)"/>
  <text x="71" y="48" font-family="Arial, Helvetica, sans-serif" font-size="28" font-weight="700" fill="#000">Pay</text>
</svg>
