<svg xmlns="http://www.w3.org/2000/svg" width="128" height="80" viewBox="0 0 128 80" role="img" aria-labelledby="title">
  <title id="title">Apple Pay</title>
  <rect width="128" height="80" rx="10" fill="#fff"/>
  <path fill="#000" d="M35.8 23.7c1.7-2 2.8-4.8 2.5-7.5-2.5.1-5.3 1.6-7.1 3.6-1.6 1.8-2.9 4.5-2.6 7.2 2.8.2 5.5-1.4 7.2-3.3Zm2.5 4.1c-3.8-.2-7.1 2.1-8.9 2.1-1.8 0-4.6-2-7.6-2-3.9.1-7.6 2.3-9.6 5.9-4.1 7.1-1.1 17.5 2.9 23.2 1.9 2.8 4.2 6 7.3 5.9 2.9-.1 4-1.9 7.5-1.9s4.5 1.9 7.6 1.8c3.2-.1 5.2-2.8 7.1-5.7 2.2-3.2 3.1-6.4 3.2-6.6-.1-.1-6.2-2.4-6.3-9.4-.1-5.9 4.8-8.8 5.1-9-2.8-4-7-4.4-8.3-4.3Z"/>
  <text x="66" y="51" font-family="Arial, Helvetica, sans-serif" font-size="30" font-weight="700" fill="#000">Pay</text>
</svg>
